<?xml version="1.0" encoding="UTF-8"?>
<!DOCTYPE svg PUBLIC "-//W3C//DTD SVG 1.1//EN" "http://www.w3.org/Graphics/SVG/1.1/DTD/svg11.dtd">
<!-- Creator: CorelDRAW -->
<svg xmlns="http://www.w3.org/2000/svg" xml:space="preserve" width="190.868mm" height="147.464mm" version="1.1" style="shape-rendering:geometricPrecision; text-rendering:geometricPrecision; image-rendering:optimizeQuality; fill-rule:evenodd; clip-rule:evenodd"
viewBox="0 0 19275.71 14892.43"
 xmlns:xlink="http://www.w3.org/1999/xlink"
 xmlns:xodm="http://www.corel.com/coreldraw/odm/2003">
 <defs>
  <style type="text/css">
   <![CDATA[
    .fil0 {fill:#FEFEFE}
   ]]>
  </style>
 </defs>
 <g id="Camada_x0020_1">
  <metadata id="CorelCorpID_0Corel-Layer"/>
  <g id="_2408124124880">
   <path class="fil0" d="M3450.4 7442.21l880.75 -5193.25c-365.38,-143.99 -647.05,-770.67 -414.68,-1308.92 461.27,-1068.49 2140.69,-703.53 2028.18,535.83 -75.01,826.19 -948.4,957.58 -948.59,957.72 -86.37,63.16 -869.39,4760.52 -876.94,5011.16 323.87,-59.35 3422.97,1.72 4031.27,4.11 18.03,110.69 -961.99,5466.16 -1078.74,5838.97l-1497.5 2.51 789.2 -3812.17c61.85,-295.17 111.24,-546.71 -235.5,-575.67l-4620.07 3.13c-278.83,34.95 -363.93,224.33 -421.6,500.78l-974.65 4583.92c-197.49,925.27 -230.86,901.12 745.6,902.09l11158.73 -0.43 1551.47 -7828.46c139.76,-792.86 205.79,-789.12 -632.65,-789.06 -522.53,0.03 -1045.06,1.69 -1567.59,1.76l-399.46 2298.21 922.35 1768.75c-87.17,519.57 -155.76,1064.29 -262.79,1586.11l-330.96 -42.22c66.58,-563.74 202.61,-1125.99 277.68,-1692.78l-736.1 -1194.87 -519.29 2953.83c286.43,296.37 692.84,652.75 417.62,1330.35 -443.87,1092.86 -2142.01,721.84 -2035.44,-509.04 45.89,-530.04 456.79,-913.92 994.73,-960.03l968.47 -5536.26 -3544.59 1.9 658.69 -4188.42c54.96,-380.66 -40.25,-264.43 1522.85,-264.31 -148.18,1617.26 -582.59,2207.24 319.35,2204.45 401.9,-1.24 4268.69,46.13 4471.19,-39.45 365.02,-154.25 332.62,-675.14 392.68,-1139.78 59.96,-463.86 114.35,-899.6 173.22,-1362.27 213.94,-1681.38 382.95,-1475.21 -1295.1,-1475.18 -1185.82,0.02 -10187.34,-40.63 -10644.19,10.97l-1154.57 6722.01c-203.5,1117.2 1005.8,461.19 1886.96,694.03z"/>
   <path class="fil0" d="M13472.97 14856.34l3665.7 0.68c121.5,-331 -95.92,-778.84 -185.49,-1077.78 -258.77,-838.98 -1206.29,-3354.18 -1086.14,-4097.26l529.8 -3421.32 -1494.5 0.37 -1429.38 8595.31z"/>
   <path class="fil0" d="M17441.9 13116.49l1130.94 -6853.1 -1498.92 -2.72c-249.47,1139.53 -388.3,2460.82 -579.58,3627.77 -55.18,336.67 290.96,1243.07 410.03,1622.73l464.94 1497.19c59.56,120.15 20.71,51.31 72.6,108.13z"/>
   <path class="fil0" d="M15067.22 5011.78l1537.06 -1.09 97.03 -572.65c-290.61,-252.86 -675.68,-567.38 -464.81,-1188.91 367.16,-1082.15 1904.58,-773.68 1911.7,296.68 3.54,533.3 -272.38,746.32 -697.89,953.08 -0.35,0.17 -118.92,-56.75 -181.61,512.9l1473.8 -0.24 533.22 -2908.72c-1118.61,-32.78 -2456.67,-4.68 -3597.76,-4.09l-610.74 2913.06z"/>
  </g>
 </g>
</svg>
